<?xml version="1.0" encoding="UTF-8"?><svg id="Layer_2" xmlns="http://www.w3.org/2000/svg" viewBox="0 0 490.06 131.96"><defs><style>.cls-1{letter-spacing:0em;}.cls-1,.cls-2,.cls-3{fill:#359;}.cls-4,.cls-5{fill:#b3c4e6;}.cls-2{letter-spacing:-.04em;}.cls-6{font-family:CenturyGothic, 'Century Gothic';font-size:90.21px;}.cls-5{letter-spacing:-.04em;}</style></defs><text class="cls-6" transform="translate(111.88 114.46)"><tspan class="cls-5" x="0" y="0">ital</tspan><tspan class="cls-1" x="113.88" y="0">E</tspan><tspan class="cls-2" x="161.61" y="0">xpats</tspan></text><path class="cls-3" d="m134.33,14.18s1.16-1.54,5.01-1.35l13.28-7.51-.96-1.74s-5.78.4-10.01,2.71-27.92,13.67-43.32,38.7c-15.4,25.03-11.17,33.5-11.17,33.5l15.02,30.03s-9.63-24.83.19-50.63c9.82-25.8,28.61-42.4,31.96-43.7Z"/><path class="cls-4" d="m5.34,15.72l-.77-2.31S23.82-.45,37.11,4.75c0,0,19.25,6.16,35.04,36,0,0,20.41,38.31,34.46,72.19l-13.48,8.09S59.06,48.57,54.05,40.94,32.1,1.48,5.34,15.72Z"/></svg>