<?xml version="1.0" encoding="utf-8"?>
<!-- Generator: Adobe Illustrator 27.5.0, SVG Export Plug-In . SVG Version: 6.00 Build 0)  -->
<svg version="1.1" xmlns="http://www.w3.org/2000/svg" xmlns:xlink="http://www.w3.org/1999/xlink" x="0px" y="0px"
	 viewBox="0 0 2500 2000" style="enable-background:new 0 0 2500 2000;" xml:space="preserve">
<style type="text/css">
	.st0{fill:#BC1D1D;}
	.st1{fill:#FFFFFF;}
	.st2{fill:#D1F5FF;}
	.st3{fill:#FFBD73;}
	.st4{fill:#C9B100;}
	.st5{fill:none;stroke:#937A11;stroke-width:3.8256;stroke-miterlimit:10;}
	.st6{fill:#CCE0FF;}
	.st7{fill:#6B6B6B;}
	.st8{fill:#DAEAC5;}
	.st9{fill:#BCCEA1;}
	.st10{fill:#4D4D4D;}
	.st11{fill:#EA2828;}
	.st12{fill:#DA291C;}
	.st13{fill:#F7A594;}
	.st14{fill:#112E59;}
	.st15{fill:#1D498C;}
	.st16{fill:#D97B69;}
	.st17{fill:#231F20;}
	.st18{fill:#E6836F;}
	.st19{fill:#4D261C;}
	.st20{fill:#F7BD0C;}
	.st21{fill:#D9FFFF;}
</style>
<g id="elements">
	<path class="st0" d="M1165.6,560l430.5,0c9.1,0,16.4-7.3,16.4-16.4l0-244.3c0-9.1-7.3-16.4-16.4-16.4l-430.5,0
		c-9.1,0-16.4,7.3-16.4,16.4l0,244.3C1149.2,552.7,1156.5,560,1165.6,560z"/>
	
		<rect x="1149.2" y="335.3" transform="matrix(-1 -2.158109e-07 2.158109e-07 -1 2761.6963 718.3453)" width="463.4" height="47.8"/>
	<path class="st1" d="M1506.4,506.9h68.1c4.3,0,7.8,3.5,7.8,7.8l0,0c0,4.3-3.5,7.8-7.8,7.8l-68.1,0c-4.3,0-7.8-3.5-7.8-7.8l0,0
		C1498.6,510.4,1502.1,506.9,1506.4,506.9z"/>
	<path class="st1" d="M1401.6,506.9h68.1c4.3,0,7.8,3.5,7.8,7.8l0,0c0,4.3-3.5,7.8-7.8,7.8h-68.1c-4.3,0-7.8-3.5-7.8-7.8l0,0
		C1393.8,510.4,1397.3,506.9,1401.6,506.9z"/>
	<path class="st2" d="M1296.9,506.9h68.1c4.3,0,7.8,3.5,7.8,7.8l0,0c0,4.3-3.5,7.8-7.8,7.8h-68.1c-4.3,0-7.8-3.5-7.8-7.8l0,0
		C1289,510.4,1292.5,506.9,1296.9,506.9z"/>
	<path class="st2" d="M1192.1,506.9h68.1c4.3,0,7.8,3.5,7.8,7.8l0,0c0,4.3-3.5,7.8-7.8,7.8h-68.1c-4.3,0-7.8-3.5-7.8-7.8l0,0
		C1184.2,510.4,1187.8,506.9,1192.1,506.9z"/>
	<path class="st1" d="M1577.7,297L1577.7,297c4.8,0,8.7,3.9,8.7,8.7v3c0,4.8-3.9,8.7-8.7,8.7l0,0c-4.8,0-8.7-3.9-8.7-8.7v-3
		C1569,300.9,1572.9,297,1577.7,297z"/>
	<path class="st1" d="M1559,307.2L1559,307.2c0,5.6-4.6,10.2-10.2,10.2h-36.1c-5.6,0-10.2-4.6-10.2-10.2l0,0
		c0-5.6,4.6-10.2,10.2-10.2h36.1C1554.5,297,1559,301.5,1559,307.2z"/>
	<path class="st3" d="M1563.7,408.8h-46.6c-7.5,0-13.5,6.1-13.5,13.5v40.2c0,7.5,6.1,13.5,13.5,13.5h46.6c7.5,0,13.5-6.1,13.5-13.5
		v-40.2C1577.3,414.9,1571.2,408.8,1563.7,408.8z"/>
	<g>
		<path class="st4" d="M380.4,703.5c-9.7,12.2-16.5,25.7-20.6,39.7l12.1,3.5c-3.9,13.2-5,27-3.5,40.5l-12.5,1.4
			c1.7,14.8,6.2,29.3,13.5,42.6l2.5-1.3l8.6-4.7c6.4,11.6,15.2,22.2,26.2,31l-7.9,9.9c12.2,9.7,25.7,16.5,39.7,20.6l3.5-12.1
			c13.2,3.9,27,5,40.4,3.5l1.4,12.5c14.8-1.7,29.4-6.2,42.7-13.5l0,0l-1.7-3.2l-4.3-7.8c11.6-6.4,22.2-15.1,31-26.1l9.9,7.9
			c9.7-12.2,16.5-25.7,20.6-39.8l-12.1-3.5c3.9-13.2,5-26.9,3.5-40.4l12.5-1.4c-1.7-14.8-6.2-29.4-13.5-42.7l-11.1,6.1
			c-6.4-11.6-15.1-22.2-26.1-31l7.9-9.9c-12.2-9.7-25.7-16.5-39.8-20.6l-3.5,12.1c-13.2-3.9-26.9-5-40.4-3.5l-1.4-12.5
			c-14.9,1.6-29.4,6.2-42.7,13.5l0,0.1l4,7.3l2,3.7c-11.6,6.4-22.2,15.2-31,26.1L380.4,703.5z M427.2,740.8
			c19.2-24.2,54.4-28.1,78.6-8.9c24.2,19.3,28.2,54.5,8.9,78.6c-19.3,24.2-54.5,28.2-78.7,8.9C411.9,800.2,407.9,765,427.2,740.8z"
			/>
	</g>
	<g>
		<path class="st5" d="M1272.7,1279.5c-11.2,14-19.1,29.6-23.8,45.8l14,4.1c-4.5,15.3-5.7,31.2-4,46.7l-14.5,1.6
			c1.9,17.1,7.1,33.9,15.6,49.2l2.9-1.5l9.9-5.5c7.4,13.4,17.5,25.7,30.2,35.8l-9.1,11.4c14,11.2,29.6,19.1,45.9,23.7l4.1-14
			c15.2,4.5,31.1,5.8,46.7,4l1.6,14.5c17.1-1.9,33.9-7.2,49.2-15.6l0,0l-2-3.7l-5-9c13.4-7.4,25.6-17.4,35.8-30.2l11.4,9.1
			c11.2-14,19.1-29.7,23.8-45.9l-14-4.1c4.5-15.2,5.7-31.1,4-46.6l14.5-1.6c-1.9-17.1-7.2-33.9-15.6-49.2l-12.8,7
			c-7.4-13.4-17.4-25.6-30.2-35.8l9.1-11.4c-14-11.2-29.7-19.1-45.9-23.8l-4.1,14c-15.2-4.5-31.1-5.7-46.6-4l-1.6-14.5
			c-17.2,1.9-33.9,7.2-49.2,15.6l0.1,0.1l4.6,8.4l2.3,4.3c-13.4,7.4-25.7,17.5-35.8,30.2L1272.7,1279.5z M1326.7,1322.5
			c22.2-27.9,62.8-32.5,90.7-10.3c27.9,22.2,32.5,62.8,10.3,90.7c-22.2,27.9-62.8,32.5-90.8,10.3
			C1309,1391.1,1304.4,1350.5,1326.7,1322.5z"/>
	</g>
	<path class="st6" d="M1138.3,296.1c0-12.2,9.9-22,22-22h81.4c0.2-1.3,0.4-2.6,0.4-4v0c0-16.8-13.1-30.6-29.6-31.8
		c0.3-2.1,0.5-4.2,0.5-6.4c0-26.1-21.2-47.3-47.3-47.3c-19.6,0-36.4,11.9-43.6,28.9c-5.8-5.2-13.5-8.4-22-8.4
		c-18.3,0-33.1,14.8-33.1,33.1h-6.2c-17.6,0-31.9,14.4-31.9,31.9v0c0,17.6,14.4,31.9,31.9,31.9h77.5V296.1z"/>
</g>
<g id="phone">
	<path class="st7" d="M672.6,448.1c11.3-67.1,114.7-97.4,112.7-53.6l473.8,2.8c32.8,0.2,59.4,29.7,59.5,66l1,1246.1
		c0,37.6-27,68.3-60.5,68.6l-483.7,4.1c-3,6.3-8.6,12-17.5,16.8c-55.5,1.2-82.1-26.2-91.8-57.2c-3.2-8.3-4.9-17.5-4.8-27.2
		C663.2,1698.3,669.1,463.8,672.6,448.1z"/>
	<path class="st1" d="M763.1,1799.1l555.2-3.6c34.6-0.2,62.7-31.8,62.6-70.4l-2.1-1281.5c-0.1-37.3-27.6-67.5-61.6-67.7l-544.4-1.8
		c-34.2-0.1-62.2,30.1-62.5,67.6l-9.9,1287.4C700.1,1767.9,728.1,1799.3,763.1,1799.1z"/>
	<path d="M755.4,1789.7c2.3,0.3,4.7,0.5,7,0.4l555-4.2c29.8-0.2,54.1-27.9,54.1-61.6l-1.9-1280.1c0-32.5-24-59.1-53.2-59.2
		L772,382.7c-0.9,0-1.7,0-2.6,0.1c-13.7,0.6-26.5,6.9-36.1,17.6c-9.8,10.9-15.2,25.4-15.3,40.8l-9.7,1288.7
		C708.1,1760.3,728.2,1786.1,755.4,1789.7z"/>
	<polygon class="st8" points="737.1,447.5 727.8,1731.8 1353,1728 1351.4,447.5 	"/>
	<path class="st4" d="M952.7,1104.6h154.5c13.1,0,23.8-10.7,23.8-23.8v0c0-13.1-10.7-23.8-23.8-23.8H952.7
		c-13.1,0-23.8,10.7-23.8,23.8v0C928.9,1093.9,939.6,1104.6,952.7,1104.6z"/>
	<path class="st1" d="M835.1,928.1h399.6c13.1,0,23.8-10.7,23.8-23.8l0,0c0-13.1-10.7-23.8-23.8-23.8H835.1
		c-13.1,0-23.8,10.7-23.8,23.8l0,0C811.4,917.4,822.1,928.1,835.1,928.1z"/>
	<path class="st1" d="M835.1,1004.7h399.6c13.1,0,23.8-10.7,23.8-23.8v0c0-13.1-10.7-23.8-23.8-23.8H835.1
		c-13.1,0-23.8,10.7-23.8,23.8v0C811.4,994,822.1,1004.7,835.1,1004.7z"/>
	<g>
		<circle class="st9" cx="1168.5" cy="983" r="8.4"/>
		<circle class="st9" cx="1139.8" cy="983" r="8.4"/>
		<circle class="st9" cx="1111.1" cy="983" r="8.4"/>
		<circle class="st9" cx="1082.4" cy="983" r="8.4"/>
		<circle class="st9" cx="1053.7" cy="983" r="8.4"/>
		<circle class="st9" cx="1025" cy="983" r="8.4"/>
		<circle class="st9" cx="996.3" cy="983" r="8.4"/>
		<circle class="st9" cx="967.6" cy="983" r="8.4"/>
		<circle class="st9" cx="938.9" cy="983" r="8.4"/>
	</g>
	<path class="st10" d="M1213.4,976.5v16.9c0,2.9,21.6,2.9,21.6,0v-16.9h-1.4v-1.3c0-5.2-4.2-9.4-9.4-9.4c-5.2,0-9.4,4.2-9.4,9.4v1.3
		H1213.4z M1230.3,976.5h-12.1v-1.3c0-3.4,2.1-6.2,6.1-6.2c4,0,6,2.9,6,6.2V976.5z M1221.3,982.5c0-1.6,1.4-3,3-3c1.6,0,3,1.4,3,3
		c0,1.1-0.6,2-1.5,2.5v4.9c0,0.9-0.6,1.5-1.5,1.5c-0.9,0-1.6-0.6-1.6-1.5V985C1221.9,984.5,1221.3,983.7,1221.3,982.5z"/>
	<g>
		<g>
			<g>
				<path class="st9" d="M1224.2,902.6c-1.9,0-3.6-0.9-4.8-2.3c-0.8-1-1.3-2.3-1.3-3.8c0-3.3,2.7-6.1,6.1-6.1c3.4,0,6.1,2.8,6.1,6.1
					c0,1.5-0.5,2.8-1.3,3.8C1227.9,901.7,1226.2,902.6,1224.2,902.6z"/>
			</g>
			<path class="st9" d="M1213.5,913.5c0,3.9,21.7,3.9,21.7,0l-0.1-4.5c-0.9-6.1-19.8-6.4-21.5,0L1213.5,913.5z"/>
		</g>
		<path class="st9" d="M1084.3,911.3h87.6c3.8,0,7-3.1,7-7l0,0c0-3.8-3.1-7-7-7h-87.6c-3.8,0-7,3.1-7,7l0,0
			C1077.3,908.2,1080.4,911.3,1084.3,911.3z"/>
		<path class="st9" d="M968.8,911.3h87.6c3.8,0,7-3.1,7-7l0,0c0-3.8-3.1-7-7-7h-87.6c-3.8,0-7,3.1-7,7l0,0
			C961.8,908.2,964.9,911.3,968.8,911.3z"/>
	</g>
	<path class="st1" d="M1153.4,1362.2v177.3c0,19.7-257.4,19.7-257.4,0v-177.3H1153.4z"/>
	<g>
		<ellipse class="st4" cx="1024.7" cy="1429.2" rx="31.8" ry="29.8"/>
		<path class="st4" d="M1024.3,1518.8h0.8c7,0,12.6-5.6,12.6-12.6v-67.9h-26v67.9C1011.7,1513.2,1017.3,1518.8,1024.3,1518.8z"/>
	</g>
	<path class="st1" d="M918.6,1349.6h26v-11.9c0-41.4,35.9-75,80.1-75c44.2,0,80.1,33.7,80.1,75v11.9h26v-11.9
		c0-54.8-47.6-99.4-106.1-99.4c-58.5,0-106.1,44.6-106.1,99.4V1349.6z"/>
</g>
<g id="shadow">
	<path class="st7" d="M401.5,1806.5h1789.6c2.9,0,5.3-2.4,5.3-5.3l0,0c0-2.9-2.4-5.3-5.3-5.3H401.5c-2.9,0-5.3,2.4-5.3,5.3l0,0
		C396.2,1804.2,398.6,1806.5,401.5,1806.5z"/>
</g>
<g id="shield">
	<g>
		<g>
			<path class="st4" d="M236.2,1133.2L236.2,1133.2c0-1,0-1.4,0-1.5C236.2,1131.8,236.2,1133.2,236.2,1133.2z"/>
			<path class="st4" d="M236.2,1133.2L236.2,1133.2c0-1,0-1.4,0-1.5C236.2,1131.8,236.2,1133.2,236.2,1133.2z"/>
			<path class="st4" d="M830.4,1135.8c0,0,0-1.4,0-1.5C830.4,1134.4,830.4,1134.8,830.4,1135.8L830.4,1135.8z"/>
			<path class="st4" d="M830.4,1135.8c0,0,0-1.4,0-1.5C830.4,1134.4,830.4,1134.8,830.4,1135.8L830.4,1135.8z"/>
			<path class="st4" d="M534.4,993.5c-65.8,70.5-170.7,128.2-283,152.8c0,7.5-0.2,49.1-1.1,240.6c-1.1,255.5,242,380.4,279.8,399.5
				c36.6-16.8,282.8-141.5,284-397c0.9-191.5,1-233.1,1.1-240.6C703,1123.3,599.5,1064.6,534.4,993.5z"/>
		</g>
	</g>
	<path class="st11" d="M533.8,1021.3c-67.8,62.2-161.7,111.1-265,137.7l-1,227.9c-0.5,104.3,41,198.6,123.1,280.4
		c54,53.7,110.8,87.1,139.6,102c1.2-0.6,2.6-1.3,3.9-2v-745.5C534.2,1021.6,534,1021.4,533.8,1021.3z"/>
	<path class="st0" d="M534.4,1021.8v745.5c30-15.6,84.4-47.8,136.5-98.8c82.9-81,125.2-175,125.6-279.3l1-227.9
		C694.8,1133.9,601.6,1084.3,534.4,1021.8z"/>
	<path class="st1" d="M741.4,1250.2c-78.6,12.1-185.7,83.8-253.3,170.1c-9.5-40.7-52-77.8-74.3-85.9l-67.4,67.8
		c42.1,19,88.1,72.7,94.2,127.8l67.4,10.4c28.4-56.1,101.7-190.3,247.6-262.4C752.8,1267,742.5,1251.8,741.4,1250.2z"/>
	<path class="st12" d="M1019.6,500.8c-34.8,3.2-73.3,14.7-107.6,32.2l-14.3,7.3l-0.7,4.7c-1.5,11.3-1.9,34.9-0.7,51
		c7.3,104,51.5,173.1,127.7,199.6l10.9,3.8l11-3.8c76.1-26.2,120.5-95.7,127.8-199.6c1.2-16.1,0.7-39.7-0.7-51l-0.7-4.7l-13.3-6.7
		c-29.2-15.1-59.7-25.3-90.1-30.2C1056.5,501.2,1029.4,500,1019.6,500.8z M1056.3,547.9c10.4,3.6,18,8.4,25.7,16
		c9,9,10.4,12.9,6.3,17.6c-3.4,3.9-7.3,2.4-15.4-5.8c-11.2-11.4-23.1-16.5-38-16.5c-15.5,0.1-26.9,5-38.1,16.4
		c-6.1,6.2-8.2,7.8-10.7,7.8c-4.1,0-7.9-4.5-7-8.3c1.6-6.2,14.9-18.3,26.7-24.2C1019.6,543.8,1041.2,542.5,1056.3,547.9z
		 M1046.1,572.5c10.5,3.1,19.5,10.2,24.1,19.4c2.7,5.3,2.6,7.2-0.2,10.2c-3.3,3.5-7.5,3.2-10.5-0.7c-9-11.8-15.1-15.8-24.1-15.8
		c-9.5,0-16.1,3.8-23.1,13.3c-3.5,4.6-4.8,5.7-7.4,5.7c-4,0-7.4-3.4-7.4-7.2c0-3.8,4.7-11.3,10.5-16.4
		C1018.1,571.8,1032.8,568.6,1046.1,572.5z M1062.6,614.9c11,3.2,17.6,6.8,24.7,13.6c9.1,8.6,15.1,22.3,13.1,30
		c-1.1,4.4-4.3,5-31.1,5c-28.3,0-25.9,0.8-27-9.2c-0.7-5.9-0.6-6.3,2.5-9.7c5.4-5.8,5.6-13,0.6-19c-5.6-6.6-15.4-6.6-21,0
		c-5.2,6.1-4.8,13.5,0.8,19.2l3.5,3.5l-1.1,7.6l-1.1,7.6h-25.6c-27.3,0-30.5-0.5-31.6-5c-2.6-10.4,7.1-27.2,20.9-36.1
		c12.1-7.9,24.7-10.5,47.7-10C1051.4,612.6,1056.6,613.2,1062.6,614.9z M1098.9,673.7c2.5,2.2,2.4,6.1-0.2,8.7
		c-2.1,2.1-3.5,2.1-63.7,2.1s-61.6,0-63.7-2.1c-2.5-2.5-2.7-6-0.3-8.6c1.6-1.8,5-1.9,63.8-1.9
		C1091.1,671.9,1097.1,672.1,1098.9,673.7z M1098.6,693.6c2.1,1.6,2.4,2.4,2,7c-0.7,6.7-5.2,13.3-11.4,16.3c-4.6,2.4-5,2.4-54.3,2.4
		s-49.6,0-54.3-2.4c-6.2-3.1-10.6-9.6-11.4-16.3c-0.8-9.2-4.6-8.6,65.6-8.6C1089.8,691.9,1096.3,692.1,1098.6,693.6z"/>
</g>
<g id="guard">
	<g>
		<path class="st13" d="M1851,817.4l190.7-1.3l164-1.7l0.7,24.9c-57,22-101.8,28.7-158.5,32.9c-57.5,19.1-133.7,31.7-192.6,35.9
			C1803.5,910.5,1799.2,819.8,1851,817.4z"/>
		<path class="st14" d="M1935.5,812c-22.9-0.4-90.6-7.6-132.9-2.6c-38.2,15.7-28.7,82.3-11.2,92.8c0,1.9,74.1,22.6,149.2,0.6
			C1951.9,889.5,1948.1,825.2,1935.5,812z"/>
		<path class="st15" d="M1950.7,905.3c-11.9,4.2-23.1,6.9-31.4,3.5c-5,0.2-10.5-99.6-5.5-99.8l31.2-1.5
			C1954.9,807,1960.6,904.8,1950.7,905.3z"/>
		<g>
			<path class="st13" d="M2186.8,814.9c5.6-25.7,14.4-62.2,25.2-62.7c2.3-0.1,2.7,1.4,2.5,8.2c-5.4,45.7,7,58.1,1,71
				c-6.6,12.5-24.6,12.3-24.6,12.3C2180.8,839,2180,822.1,2186.8,814.9z"/>
			<path class="st13" d="M2199.6,809.3l11.2-33.2c0,0,7.3,1.3,5.8,10.1c-1.5,8.8-3.4,18.2-3.4,18.2s8.8,19,1.8,26.8
				C2208,839.1,2196,831.4,2199.6,809.3z"/>
			<path class="st16" d="M2216.6,829.9l-0.9-0.3c3.8-12-2.8-24.8-2.9-25l-0.1-0.1l0-0.2c0-0.1,1.9-9.5,3.4-18.2
				c0.6-3.5-0.1-6.1-2.2-7.9c-1.1-1-2.3-1.4-2.9-1.5l-11.1,32.8l-0.8-0.3l11.4-33.5l0.4,0.1c0.1,0,2,0.4,3.7,1.8
				c1.6,1.4,3.3,4,2.5,8.7c-1.4,8.1-3.1,16.8-3.4,18.1C2214.4,805.8,2220.3,818.2,2216.6,829.9z"/>
			<path class="st16" d="M2194.7,793.5l-0.9-0.2c0.4-1.6,9.9-38.7,18-41.6l0.3,0.8C2204.4,755.3,2194.8,793.1,2194.7,793.5z"/>
		</g>
	</g>
	<g>
		<g>
			<path class="st17" d="M1613.5,1800.5h87.7c1.8-1,3-2.2,3.8-3.5c1.4-65.3,6.4-96.7,6.4-96.7l-61.2-2.5l-11.5,48.5
				C1618.8,1760.3,1595.9,1790.3,1613.5,1800.5z"/>
			<path class="st17" d="M1707.9,1801.6h-104c-2.6,0-2.4-14.5,0.2-14.5l103.4,0.6C1710.2,1787.8,1710.6,1801.6,1707.9,1801.6z"/>
		</g>
		<path class="st14" d="M1697.2,1115.7c-6.2,48.3-32.8,167.6-29.9,298.9c-28.7,167.2-31.9,204.1-35.4,307.2l87.7,3.3
			c14-72,42.8-185.7,55.9-296.7c28.3-87.4,46.9-212,56-310.9C1840.7,1032.3,1720.2,997.8,1697.2,1115.7z"/>
		<path class="st17" d="M1674.7,1725.9l-1.8,0c0.2-11.9,35.8-414.1,72-577.1l1.8,0.4C1710.5,1312.1,1674.9,1714,1674.7,1725.9z"/>
	</g>
	<g>
		<path class="st14" d="M1785.3,1121.6c12.4,166.4,48.8,307.7,48.8,307.7c-7.1,113.5,13,222.5,27.3,297.1l83.4-0.7
			c4.8-73-5.5-468.1-27.1-602.2C1907.5,1005,1770.4,998.7,1785.3,1121.6z"/>
		<path class="st17" d="M1877.2,1726.4c-3.7,26.9-6.3,47.9-3.1,72.2l136.4,2.7c0,0,12.9-13.1-5-32.9c-17.9-19.7-49.6-8.3-72.1-42.7
			L1877.2,1726.4z"/>
		<path class="st17" d="M2016.8,1801.6h-144.8c-2.6,0-2.6-14.5,0-14.5l144.2,0.6C2018.9,1787.8,2019.5,1801.6,2016.8,1801.6z"/>
		
			<rect x="1910.2" y="1149.8" transform="matrix(0.9988 -4.966387e-02 4.966387e-02 0.9988 -69.0322 96.688)" class="st17" width="1.8" height="575.3"/>
	</g>
	<path class="st14" d="M1917.4,1102.7l-216.9,16.5c2-135.8-59.3-229.6-46.6-264.5c17.5-48,145.4-48.4,194.1-29.6
		c19.3,7.4,50.8,50.5,54.5,104.6c1,25.2,1.3,42.5-1.2,62.6S1917.4,1102.7,1917.4,1102.7z"/>
	<path class="st13" d="M1787.8,852.1c-10.1-8-50.3-20.4-61-29.1l2.4-69.8l39.5-3.9c11.5,1,22.9,3.7,32.8,7.6l8.9,46l2,10
		C1816.9,822.7,1808,834.5,1787.8,852.1z"/>
	<path class="st18" d="M1742.5,769c6.2,9.5,32.2,34,67.9,33.9l-7.7-39.8L1742.5,769z"/>
	<g>
		<g>
			<path class="st13" d="M1830.1,677c3.1,13.8,9.5,43.9,8.4,57.9c-1.6,21.2-21.4,44.7-38.6,47.7c-20,2-46.9-3.9-61.5-16.5
				c-8.1-9.5-23.9-32.1-31.1-51.9c-15.1-41.3,14.1-77.5,51.1-85.8C1795.4,620,1820.4,634.1,1830.1,677z"/>
			<path class="st19" d="M1719.7,741.5c-7.7-13.6,2.5-19.1,13.8-8.5c-1.9-10.2-13.6-40.3-3.3-50.2c11.7-11.6,63.1-6.5,90.8-35.3
				c0,0-20.6-45.2-88.2-18.5C1656.4,669.4,1719.7,741.5,1719.7,741.5z"/>
			<path class="st13" d="M1729.3,728.6c5.8,7.1,6.1,16.5,0.6,21.1c-5.5,4.5-14.8,2.4-20.6-4.7c-5.8-7.1-6.1-16.5-0.6-21.1
				C1714.2,719.4,1723.4,721.5,1729.3,728.6z"/>
		</g>
		<path class="st14" d="M1821.6,649.3c-8.6-2.6-110.9,38-108.2,45.6c0,0,74.1,0.3,125-22.8C1866.2,659.4,1821.6,649.3,1821.6,649.3z
			"/>
		<path class="st15" d="M1698,701.4l124.3-52.4l-4.2-17.6l-131.7,54.3C1688.9,691.8,1693.4,698.4,1698,701.4z"/>
		<path class="st14" d="M1682.7,689.7c-13.6,5.2-20.9-3.1-7.1-18.9c21.2-24.4,35.6-86.7,67.1-98c21.7-7.8,38.1,17.6,66.9,33.4
			c13.1,7.2,20.4,14.6,15.5,23.4C1810.2,640.6,1697,684.2,1682.7,689.7z"/>
		<g>
			<path class="st20" d="M1769,596.2c-0.2-0.4-0.2-0.6-0.3-0.7c-3.1,0.4-6.2,0.4-9.2,0c-3-0.4-5.7-1.2-8.1-2.4l0,0h0c0,0,0,0,0,0
				c-0.5,1.2-1.1,2.4-1.9,3.6c-1,1.6-2.2,3.1-3.6,4.6c-0.7,0.7-1.4,1.4-2.2,2.1c-1.2,1-2.4,2-3.7,2.8c0.1,0.2,0.4,1.1,1.6,4.2
				c0.2,0.6,0.5,1.3,0.8,2.1c0.1,0.4,0.3,0.8,0.5,1.2c0.5,1.3,1.1,2.9,1.8,4.7c0.9,2.4,2.2,4.4,3.6,6.1c0.5,0.6,1,1.1,1.5,1.6
				c1.6,1.5,3.3,2.7,5,3.6c1.7,0.9,3.5,1.6,5.1,2.1c2.1,0.7,4,1,5.2,1.2c0.6,0.1,1.1,0.1,1.4,0.2c0.5-0.5,1.8-1.9,3.2-4
				c0.6-0.8,1.2-1.8,1.7-2.8c0.3-0.5,0.6-1.1,0.8-1.6c2.1-4.5,3.4-10.5,1-16.9C1770.6,600.4,1769.5,597.4,1769,596.2z"/>
			<path class="st1" d="M1768.4,609.7c1.9,5.1-0.7,10.8-5.9,12.7c-5.1,1.9-10.9-0.7-12.7-5.8s0.7-10.8,5.9-12.7
				C1760.8,602,1766.5,604.6,1768.4,609.7z"/>
		</g>
	</g>
	<g>
		<path class="st17" d="M1786.9,832.8l6.5,13.7l1-14.6l8.8,23.4c-2.2-3.9-9.7-7.3-9.7-7.3s-8.1,3.7-12.1,12.6L1786.9,832.8z"/>
		<path class="st15" d="M1727.3,806.2c9.8,12.6,41.5,21.2,59.6,26.6l-5.4,27.9c-21.7-7.3-49.9-15.7-62.5-41.7
			C1716.2,811.9,1719.6,808,1727.3,806.2z"/>
		<path class="st15" d="M1810.6,801.8c-1,4.6-1.7,22.6-16.2,30.2l8.8,23.4c19.9-11.4,21-22,17.9-38.5
			C1819.9,810.2,1817.7,803.2,1810.6,801.8z"/>
	</g>
	<path class="st17" d="M1827.9,1115.2c-0.5,0-0.8-0.3-0.9-0.8c-2.2-20.7-4-45.4-5.9-71.5c-5.2-71.2-11.1-151.9-28.3-194.5
		c-0.2-0.5,0-1,0.5-1.2c0.5-0.2,1,0,1.2,0.5c17.2,42.9,23.2,123.7,28.4,195c1.9,26.1,3.7,50.8,5.9,71.4
		C1828.8,1114.7,1828.5,1115.1,1827.9,1115.2C1827.9,1115.2,1827.9,1115.2,1827.9,1115.2z"/>
	<path class="st17" d="M1700.6,1097c42.4,11.4,208.6,7,215.2,1.9c10.1-2.3,12.4,34.1,6.5,42.9c-9,13.4-222.5,11.3-229.3,1.6
		C1686.4,1133.8,1688.6,1093.8,1700.6,1097z"/>
	<g>
		<g>
			<path class="st20" d="M1864.8,900.3c0-0.4-0.1-0.6-0.1-0.7c-3-0.3-6-1.1-8.7-2.2c-2.7-1.1-5.1-2.5-7-4.2l0,0h0c0,0,0,0,0,0
				c-0.8,1-1.6,2-2.6,3c-1.3,1.3-2.8,2.4-4.5,3.5c-0.8,0.5-1.7,1-2.6,1.5c-1.3,0.7-2.7,1.3-4.1,1.8c0,0.2,0.1,1.2,0.5,4.3
				c0.1,0.6,0.2,1.3,0.2,2.1c0,0.4,0.1,0.8,0.1,1.3c0.2,1.4,0.3,3,0.6,4.8c0.3,2.5,1,4.7,2,6.6c0.3,0.6,0.7,1.3,1.1,1.9
				c1.1,1.8,2.5,3.3,3.9,4.6c1.4,1.3,2.9,2.3,4.3,3.2c1.8,1.1,3.5,1.9,4.7,2.3c0.6,0.2,1,0.4,1.3,0.5c0.6-0.4,2.2-1.4,4-3.1
				c0.7-0.7,1.5-1.4,2.3-2.3c0.4-0.4,0.8-0.9,1.2-1.4c3-3.8,5.7-9.1,4.9-15.8C1865.3,904.7,1865,901.6,1864.8,900.3z"/>
		</g>
		
			<rect x="1833.7" y="943.3" transform="matrix(0.9953 -9.690656e-02 9.690656e-02 0.9953 -83.0522 184.1923)" class="st15" width="42" height="7.7"/>
	</g>
	<path class="st17" d="M1829.1,1238h-12.8l0.3-1.1c5.8-24.4,6.5-83.6,6.6-84.2l1.8,0c0,0.6-0.8,58.3-6.4,83.5h9.1
		c1.2-6,9.2-48,7.2-82l1.8-0.1c2.2,36.8-7.2,82.8-7.3,83.2L1829.1,1238z"/>
	<g>
		<path class="st13" d="M1619.6,962.9c0,0-16.9,95.5,0.3,129.2c17.8,34.8,181.9,42.4,181.9,42.4l5.9-49.4l-113.1-28.7l24.6-73.2
			L1619.6,962.9z"/>
		<path class="st14" d="M1662.2,840.1c0,0-47.7,58.2-49.6,141.5c62.2,45.3,103.1,12.7,103.1,12.7s31.5-83.3,24.5-123.8
			C1733.2,829.9,1676.3,825.3,1662.2,840.1z"/>
		<path class="st15" d="M1614.7,956.6c8.4,10.2,105,30.2,107,19c2.7,10.7,2.1,21.2-6.5,31c-2.5,15.6-107.2-0.8-104.7-16.4
			C1604.3,980.5,1605.8,969.3,1614.7,956.6z"/>
		<path class="st17" d="M1721.7,976.5c-0.2,0-0.3,0-0.5-0.1c-0.4-0.3-0.6-0.8-0.3-1.2c7-11.8,12.8-27.8,16-43.8
			c0.1-0.5,0.6-0.8,1.1-0.7c0.5,0.1,0.8,0.6,0.7,1.1c-3.3,16.2-9.2,32.4-16.3,44.3C1722.3,976.3,1722,976.5,1721.7,976.5z"/>
	</g>
	<g>
		<g>
			<path class="st21" d="M1733.3,969.2L1733.3,969.2c0-0.6,0-0.8,0-0.9C1733.3,968.4,1733.3,969.2,1733.3,969.2z"/>
			<path class="st21" d="M1733.3,969.2L1733.3,969.2c0-0.6,0-0.8,0-0.9C1733.3,968.4,1733.3,969.2,1733.3,969.2z"/>
			<path class="st21" d="M2074.1,973c0,0,0-0.8,0-0.9C2074.1,972.2,2074.1,972.4,2074.1,973L2074.1,973z"/>
			<path class="st21" d="M2074.1,973c0,0,0-0.8,0-0.9C2074.1,972.2,2074.1,972.4,2074.1,973L2074.1,973z"/>
			<path class="st1" d="M1905,878.7c-40,42.1-103.6,76.4-171.5,90.7c-0.1,4.5-0.3,29.5-1.6,144.6
				c-1.7,153.6,144.6,229.6,167.3,241.2c22.2-10,171.3-83.9,173-237.5c1.3-115.1,1.6-140.1,1.6-144.6
				C2006.3,957.3,1944.1,921.7,1905,878.7z"/>
		</g>
	</g>
	<path class="st9" d="M1904.4,906.5c-39.1,35.3-93.2,62.8-152.5,77.6l-1.4,130.1c-0.7,59.5,22.7,113.5,69.6,160.5
		c30.8,30.9,63.2,50.1,79.7,58.8c0.7-0.4,1.5-0.8,2.3-1.1l2.8-425.6C1904.6,906.7,1904.5,906.6,1904.4,906.5z"/>
	<path class="st8" d="M1904.8,906.8l-2.8,425.6c17.2-8.8,48.6-27,78.7-55.9c47.9-46,72.4-99.4,73.1-159l1.4-130.1
		C1996.3,971.3,1943.1,942.7,1904.8,906.8z"/>
	<g>
		<path class="st1" d="M1834.7,1093.8l-0.7,100.8c-0.1,11.2,137.6,12.1,137.7,0.9l0.7-100.8L1834.7,1093.8z M1910.1,1147.9
			l-0.2,28.6c0,3.8-3.2,6.9-7,6.9c-3.9,0-7-3.2-6.9-7l0.2-28.6c-5.9-2.7-10-8.6-9.9-15.5c0.1-9.4,7.8-16.8,17.1-16.8
			s16.9,7.7,16.9,17C1920.2,1139.3,1916.1,1145.3,1910.1,1147.9z"/>
		<path class="st1" d="M1960.3,1087.5l-13.9-0.1l0-6.8c0.2-23.5-18.9-42.8-42.6-42.9c-23.6-0.2-43,18.9-43.1,42.4l0,6.8l-13.9-0.1
			l0-6.8c0.2-31.2,25.8-56.4,57.2-56.1c31.3,0.2,56.6,25.7,56.4,56.9L1960.3,1087.5z"/>
	</g>
</g>
</svg>
