<?xml version="1.0" standalone="no"?>
<!DOCTYPE svg PUBLIC "-//W3C//DTD SVG 20010904//EN"
 "http://www.w3.org/TR/2001/REC-SVG-20010904/DTD/svg10.dtd">
<svg version="1.0" xmlns="http://www.w3.org/2000/svg"
 width="930.000000pt" height="284.000000pt" viewBox="0 0 930.000000 284.000000"
 preserveAspectRatio="xMidYMid meet">

<g transform="translate(0.000000,284.000000) scale(0.100000,-0.100000)"
fill="#da291c" stroke="none">
<path d="M1180 2834 c-330 -30 -696 -140 -1021 -306 l-136 -69 -7 -45 c-14
-107 -18 -331 -7 -484 69 -987 489 -1643 1212 -1895 l103 -36 104 36 c722 249
1144 908 1213 1895 11 153 7 377 -7 484 l-7 45 -126 64 c-277 143 -567 240
-855 287 -116 20 -373 32 -466 24z m348 -447 c99 -34 171 -80 244 -152 85 -85
99 -122 60 -167 -32 -37 -69 -23 -146 55 -106 108 -219 157 -361 157 -147 -1
-255 -47 -362 -156 -58 -59 -78 -74 -102 -74 -39 0 -75 43 -66 79 15 59 141
174 253 230 132 67 337 79 480 28z m-97 -233 c100 -29 185 -97 229 -184 26
-50 25 -68 -2 -97 -31 -33 -71 -30 -100 7 -85 112 -143 150 -229 150 -90 0
-153 -36 -219 -126 -33 -44 -46 -54 -70 -54 -38 0 -70 32 -70 68 0 36 45 107
100 156 95 86 235 117 361 80z m157 -403 c104 -30 167 -65 234 -129 86 -82
143 -212 124 -285 -10 -42 -41 -47 -295 -47 -269 0 -246 -8 -256 87 -7 56 -6
60 24 92 51 55 53 123 6 180 -53 63 -146 63 -199 0 -49 -58 -46 -128 8 -182
l33 -33 -10 -72 -10 -72 -243 0 c-259 0 -290 5 -300 47 -25 99 67 258 198 343
115 75 234 100 453 95 126 -2 176 -8 233 -24z m344 -558 c24 -21 23 -58 -2
-83 -20 -20 -33 -20 -605 -20 -572 0 -585 0 -605 20 -24 24 -26 57 -3 82 15
17 47 18 606 18 535 0 592 -2 609 -17z m-3 -189 c20 -15 23 -23 19 -66 -7 -64
-49 -126 -108 -155 -44 -23 -47 -23 -515 -23 -468 0 -471 0 -515 23 -59 29
-101 91 -108 155 -8 87 -44 82 623 82 521 0 583 -2 604 -16z"/>
<path d="M2722 1948 c-9 -9 -12 -194 -12 -770 0 -738 0 -758 19 -768 12 -6 99
-10 214 -10 175 0 195 2 210 18 16 17 17 85 17 768 0 570 -3 753 -12 762 -17
17 -419 17 -436 0z"/>
<path d="M3273 1949 c-10 -10 -13 -178 -13 -771 0 -738 0 -758 19 -768 12 -6
99 -10 214 -10 175 0 195 2 210 18 15 16 17 49 17 250 l0 232 73 0 c324 1 517
196 517 524 0 163 -45 283 -144 382 -64 64 -132 102 -231 131 -79 22 -642 32
-662 12z m507 -384 c41 -21 64 -69 64 -135 0 -62 -20 -102 -65 -126 -58 -30
-59 -28 -59 131 0 159 1 161 60 130z"/>
<path d="M4352 1948 c-9 -9 -12 -194 -12 -770 0 -738 0 -758 19 -768 26 -13
585 -13 669 0 179 29 306 130 362 288 19 52 24 88 24 162 1 156 -46 253 -150
312 l-56 31 28 15 c88 44 143 139 151 261 12 177 -75 344 -216 416 -114 57
-175 65 -506 65 -221 0 -304 -3 -313 -12z m510 -368 c21 -6 44 -21 53 -33 17
-25 20 -89 5 -118 -13 -24 -61 -49 -95 -49 l-25 0 0 105 c0 115 -2 112 62 95z
m11 -574 c52 -22 72 -52 72 -106 0 -34 -6 -55 -20 -70 -22 -26 -74 -50 -105
-50 -19 0 -20 6 -20 120 0 114 1 120 20 120 11 0 35 -6 53 -14z"/>
<path d="M7333 1502 c-183 -65 -279 -233 -290 -507 -9 -216 40 -384 142 -490
141 -144 402 -150 540 -11 87 87 119 180 138 394 8 94 8 138 0 150 -9 15 -35
17 -208 20 -137 2 -202 -1 -211 -9 -18 -15 -20 -219 -2 -237 7 -7 31 -12 55
-12 42 0 43 -1 37 -27 -16 -67 -59 -103 -99 -85 -51 23 -60 61 -60 247 0 177
7 220 46 269 36 46 88 27 105 -37 3 -16 13 -31 21 -34 20 -8 284 89 291 106 9
23 -48 120 -100 172 -26 26 -73 60 -105 75 -76 37 -219 45 -300 16z"/>
<path d="M5446 1484 c-10 -25 -7 -670 3 -759 19 -166 93 -260 241 -310 80 -27
217 -25 292 4 106 41 177 117 203 218 13 49 15 127 13 459 l-3 399 -155 0
-155 0 -5 -381 c-4 -303 -8 -384 -19 -397 -16 -20 -66 -22 -78 -4 -4 6 -10
185 -13 397 l-5 385 -156 3 c-136 2 -157 0 -163 -14z"/>
<path d="M6266 1485 c-3 -9 -6 -249 -6 -534 0 -389 3 -520 12 -529 17 -17 289
-17 306 0 8 8 12 59 13 163 l0 150 61 -162 61 -163 163 0 c137 0 163 2 168 16
3 9 -36 102 -94 221 l-100 207 50 44 c81 71 95 106 95 242 0 102 -3 121 -25
165 -35 72 -105 138 -176 166 -55 21 -76 23 -290 27 -208 3 -232 2 -238 -13z
m397 -287 c27 -33 23 -109 -9 -147 -14 -17 -34 -31 -45 -31 -18 0 -19 8 -19
106 l0 106 28 -6 c15 -4 35 -16 45 -28z"/>
<path d="M7906 1484 c-3 -8 -6 -249 -6 -534 0 -426 2 -520 14 -529 9 -8 92
-11 282 -9 l269 3 0 140 0 140 -117 3 -118 3 0 64 0 65 104 0 c85 0 105 3 110
16 3 9 6 62 6 119 0 57 -3 110 -6 119 -5 13 -25 16 -110 16 l-104 0 0 60 0 59
118 3 117 3 0 135 0 135 -276 3 c-246 2 -277 1 -283 -14z"/>
<path d="M8506 1485 c-3 -9 -6 -249 -6 -534 0 -389 3 -520 12 -529 17 -17 289
-17 306 0 8 8 12 59 13 163 l0 150 61 -162 61 -163 163 0 c137 0 163 2 168 16
3 9 -36 102 -94 221 l-100 207 50 44 c81 71 95 106 95 242 0 102 -3 121 -25
165 -35 72 -105 138 -176 166 -55 21 -76 23 -290 27 -208 3 -232 2 -238 -13z
m397 -287 c27 -33 23 -109 -9 -147 -14 -17 -34 -31 -45 -31 -18 0 -19 8 -19
106 l0 106 28 -6 c15 -4 35 -16 45 -28z"/>
</g>
</svg>
