<?xml version="1.0" encoding="utf-8"?>
<!-- Generator: Adobe Illustrator 27.5.0, SVG Export Plug-In . SVG Version: 6.00 Build 0) --><svg version="1.1"
  id="Layer_1" xmlns="http://www.w3.org/2000/svg" xmlns:xlink="http://www.w3.org/1999/xlink" x="0px" y="0px"
  viewBox="0 0 500 300" style="enable-background:new 0 0 500 300;" xml:space="preserve">
  <style type="text/css">
    .st0 {
      fill: #339977;
    }
  </style>
  <path class="st0"
    d="M493.4,257.6v-2.1c-9,0-16.3-6.9-16.3-15.3c0-8.5,7.3-15.3,16.3-15.3v-14.4c-9,0-16.3-6.9-16.3-15.3 s7.3-15.3,16.3-15.3v-14.4c-9,0-16.3-6.9-16.3-15.3s7.3-15.3,16.3-15.3v-14.4c-9,0-16.3-6.9-16.3-15.3s7.3-15.3,16.3-15.3V75.1 c-9,0-16.3-6.9-16.3-15.3s7.3-15.3,16.3-15.3v-2.1c0-9.6-8.3-17.4-18.5-17.4H33.3c-10.2,0-18.5,7.8-18.5,17.4V105 c26,0.5,46.9,20.5,46.9,45s-20.9,44.5-46.9,45v62.6c0,9.6,8.3,17.4,18.5,17.4h441.5C485.1,275,493.4,267.2,493.4,257.6z" />
</svg>